<?xml version="1.0" encoding="UTF-8" standalone="no"?>
<!-- Created with Inkscape (http://www.inkscape.org/) -->
<svg
   xmlns:dc="http://purl.org/dc/elements/1.1/"
   xmlns:cc="http://web.resource.org/cc/"
   xmlns:rdf="http://www.w3.org/1999/02/22-rdf-syntax-ns#"
   xmlns:svg="http://www.w3.org/2000/svg"
   xmlns="http://www.w3.org/2000/svg"
   xmlns:sodipodi="http://sodipodi.sourceforge.net/DTD/sodipodi-0.dtd"
   xmlns:inkscape="http://www.inkscape.org/namespaces/inkscape"
   id="svg2"
   sodipodi:version="0.32"
   inkscape:version="0.45pre1"
   width="250"
   height="350"
   version="1.0"
   sodipodi:docbase="C:\Documents and Settings\Flanker\Desktop"
   sodipodi:docname="Fleur_de_lis_of_Florence.svg"
   inkscape:output_extension="org.inkscape.output.svg.inkscape"
   sodipodi:modified="true">
  <metadata
     id="metadata7">
    <rdf:RDF>
      <cc:Work
         rdf:about="">
        <dc:format>image/svg+xml</dc:format>
        <dc:type
           rdf:resource="http://purl.org/dc/dcmitype/StillImage" />
      </cc:Work>
    </rdf:RDF>
  </metadata>
  <defs
     id="defs5" />
  <sodipodi:namedview
     inkscape:window-height="1003"
     inkscape:window-width="1280"
     inkscape:pageshadow="2"
     inkscape:pageopacity="0.0"
     guidetolerance="10.0"
     gridtolerance="10.0"
     objecttolerance="10.0"
     borderopacity="1.0"
     bordercolor="#666666"
     pagecolor="#ffffff"
     id="base"
     inkscape:zoom="3.067931"
     inkscape:cx="129.70392"
     inkscape:cy="186.57303"
     inkscape:window-x="0"
     inkscape:window-y="0"
     inkscape:current-layer="svg2"
     width="250px"
     height="350px" />
  <g
     id="g6039"
     transform="matrix(2,0,0,2,6.125,14.75)">
    <path
       style="fill:none;fill-opacity:1;fill-rule:evenodd;stroke:#ffffff;stroke-width:2;stroke-linecap:butt;stroke-linejoin:miter;stroke-miterlimit:2;stroke-dasharray:none;stroke-opacity:1"
       d="M 59.4375,1 C 56.188,10.444881 39.28125,13.114395 39.28125,28.21875 C 39.28125,43.041993 56.95407,46.32962 57.34375,102.90625 L 55.84375,102.90625 C 56.00309,96.6279 55.62285,75.56896 44.15625,59.09375 C 42.48294,55.024876 41.19813,50.619496 42.03125,45.5 C 40.131279,46.956649 39.08137,49.360685 38.84375,52.6875 C 37.4863,51.256419 36.2072,49.923163 34.96875,48.65625 C 32.632689,42.557453 36.97291,34.293365 29.0625,31.34375 C 32.52778,37.548674 30.26065,40.427767 30.5625,44.21875 C 27.052009,40.768743 24.237989,38.216758 21.875,36.15625 C 21.574579,35.363709 21.39353,34.478381 21.40625,33.40625 C 19.406569,33.963492 17.47976,32.744202 17.28125,31.3125 C 16.80932,27.908583 21.968759,28.90625 21.96875,28.90625 C 22.544729,27.717982 20.99494,23.084764 17.15625,24.125 C 13.322089,25.164011 14.156259,28.3125 14.15625,28.3125 C 12.89727,24.595464 10.59734,23.549185 8.09375,23.59375 C 6.955759,23.614007 5.709269,23.98883 4.5625,24.3125 C 4.31333,28.117326 4.86189,32.209342 10.53125,32.875 C 10.53125,32.875 7.24938,32.721037 7.03125,36.6875 C 6.81288,40.658633 11.676409,41.21696 12.71875,40.40625 C 12.71875,40.40625 10.697429,35.528223 14.125,35.28125 C 15.56666,35.177371 17.128789,36.803115 17,38.875 C 18.297219,38.582778 19.41337,38.634646 20.40625,38.875 C 22.678869,40.870656 25.3386,43.336284 28.65625,46.59375 C 24.286029,46.167872 21.77778,49.417265 14.71875,46.34375 C 18.446099,53.951216 26.28306,48.753795 32.59375,50.53125 C 34.12807,52.095113 35.74727,53.737293 37.46875,55.5625 C 37.555709,55.6547 37.63277,55.750935 37.71875,55.84375 C 33.297709,55.32801 30.10414,56.133621 28.15625,58.25 C 33.810179,57.845391 38.40182,59.877871 42.59375,62.15625 C 52.557739,77.627312 52.95246,97.17422 52.84375,102.90625 L 50.34375,102.90625 C 50.82705,84.099251 39.201499,59.84375 18.6875,59.84375 C 8.502339,59.843748 1.000009,67.025953 1,77.1875 C 0.999989,99.57993 30.312509,88.39294 30.3125,102.09375 C 30.312509,109.52879 21.679229,108.33782 21.5,108.3125 C 21.728009,105.26468 23.843759,106.03436 23.84375,103.71875 C 23.843759,101.41969 21.70039,101.34478 20.0625,99.625 C 18.424619,101.34478 16.31252,101.41969 16.3125,103.71875 C 16.3125,105.92279 18.242689,105.33955 18.625,107.90625 C 15.536829,107.69179 16.29307,105.5625 13.96875,105.5625 C 11.66969,105.56249 11.59478,107.70587 9.875,109.34375 C 11.59478,110.98163 11.66969,113.09374 13.96875,113.09375 C 16.29307,113.09375 15.536829,110.96447 18.625,110.75 C 18.238419,113.30274 16.312509,112.73693 16.3125,114.9375 C 16.312509,117.23656 18.42463,117.31147 20.0625,119.03125 C 21.700379,117.31147 23.84377,117.23656 23.84375,114.9375 C 23.84375,112.65208 21.773239,113.34868 21.5,110.4375 C 21.680699,110.45657 33.250009,111.63319 33.25,101.09375 C 33.249989,89.98555 23.437509,89.89089 23.4375,81.78125 C 23.4375,77.866515 26.099199,76.21875 30.15625,76.21875 C 40.243199,76.218753 47.415489,91.02992 47.53125,102.90625 L 46.65625,102.90625 C 43.34429,102.90625 40.6875,105.56304 40.6875,108.875 C 40.6875,112.18696 43.34429,114.875 46.65625,114.875 L 53.125,114.875 C 50.79338,120.96624 44.1499,123.21875 38.28125,123.21875 C 28.180039,123.21875 22.392669,126.94976 21.5,133.625 C 24.62081,128.66866 28.243489,130.4568 31.5,129.34375 C 34.76504,128.22779 36.634459,125.1875 41.25,125.1875 C 37.95216,126.91134 36.303939,128.83942 36.5,131 C 38.301669,129.32112 41.036319,129.77095 42.875,128.6875 C 44.743989,127.58619 45.755659,124.25563 48.625,122.96875 C 47.40071,124.49015 45.976789,126.60304 45.59375,128.21875 C 47.584419,126.35404 49.570049,126.51333 51.0625,125.34375 C 52.6002,124.1387 52.73334,121.802 55.25,121.09375 C 54.697859,124.54262 52.66082,129.88605 45.40625,131.96875 C 37.95615,134.1076 33.582789,138.69417 33.375,145.65625 C 36.69726,141.13808 38.09261,141.83299 40.59375,140 C 43.134499,138.13799 42.887119,136.33316 45.59375,134.6875 C 44.738299,136.4691 43.968379,138.28857 44.1875,140.5 C 45.52628,138.55232 48.150149,138.26623 50.8125,135.8125 C 52.576009,134.18716 52.523119,131.28125 54.25,131.28125 C 55.424539,131.28125 56.3125,132.2232 56.3125,133.78125 C 56.3125,136.27102 53.362749,138.74188 51.96875,142.21875 C 50.58154,145.67871 51.71875,150.90625 51.71875,150.90625 C 53.954889,150.44553 55.886849,148.63919 57.6875,146.21875 C 57.68751,148.88683 55.75,150.60214 55.75,152.28125 C 55.75,155.76862 58.259729,156.87507 59.40625,159.25 C 60.552769,156.87507 63.09375,155.76862 63.09375,152.28125 C 63.09375,150.60214 61.12501,148.88683 61.125,146.21875 C 62.92565,148.63919 64.888849,150.44553 67.125001,150.90625 C 67.125001,150.90625 68.262211,145.67871 66.875001,142.21875 C 65.480999,138.74188 62.531239,136.27102 62.53125,133.78125 C 62.53125,132.2232 63.4192,131.28125 64.59375,131.28125 C 66.320632,131.28125 66.267731,134.18716 68.031251,135.8125 C 70.693602,138.26623 73.317471,138.55232 74.656251,140.5 C 74.875372,138.28857 74.105441,136.4691 73.250001,134.6875 C 75.956632,136.33316 75.709272,138.13799 78.250001,140 C 80.75114,141.83299 82.14648,141.13808 85.46875,145.65625 C 85.26095,138.69417 80.8876,134.1076 73.437501,131.96875 C 66.182931,129.88605 64.145899,124.54262 63.59375,121.09375 C 66.110411,121.802 66.243541,124.1387 67.781251,125.34375 C 69.273702,126.51333 71.259321,126.35404 73.250001,128.21875 C 72.866962,126.60304 71.443051,124.49015 70.218751,122.96875 C 73.088092,124.25563 74.099751,127.58619 75.968751,128.6875 C 77.807431,129.77095 80.54207,129.32112 82.34375,131 C 82.5398,128.83942 80.89159,126.91134 77.593751,125.1875 C 82.20929,125.1875 84.07872,128.22779 87.34375,129.34375 C 90.60025,130.4568 94.22293,128.66866 97.34375,133.625 C 96.45107,126.94976 90.66372,123.21875 80.5625,123.21875 C 74.691581,123.21875 68.047941,120.97158 65.71875,114.875 L 72.218751,114.875 C 75.530711,114.875 78.187501,112.18696 78.187501,108.875 C 78.187501,105.56304 75.530701,102.90625 72.218751,102.90625 L 71.343751,102.90625 C 71.459512,91.02992 78.631801,76.218753 88.71875,76.21875 C 92.77581,76.21875 95.4375,77.866515 95.4375,81.78125 C 95.4375,89.89089 85.62501,89.98555 85.625,101.09375 C 85.625,111.63319 97.1943,110.45657 97.375,110.4375 C 97.10177,113.34868 95.03125,112.65208 95.03125,114.9375 C 95.03124,117.23656 97.17462,117.31147 98.8125,119.03125 C 100.45038,117.31147 102.56249,117.23656 102.5625,114.9375 C 102.5625,112.73693 100.63658,113.30274 100.25,110.75 C 103.33818,110.96447 102.58193,113.09375 104.90625,113.09375 C 107.20532,113.09374 107.28022,110.98163 109,109.34375 C 107.28023,107.70587 107.20531,105.56249 104.90625,105.5625 C 102.58194,105.5625 103.33817,107.69179 100.25,107.90625 C 100.63232,105.33955 102.5625,105.92279 102.5625,103.71875 C 102.56249,101.41969 100.45038,101.34478 98.8125,99.625 C 97.17462,101.34478 95.03124,101.41969 95.03125,103.71875 C 95.03125,106.03436 97.14699,105.26468 97.375,108.3125 C 97.19578,108.33782 88.56249,109.52879 88.5625,102.09375 C 88.5625,88.39294 117.87501,99.57993 117.875,77.1875 C 117.875,67.025953 110.37266,59.843748 100.1875,59.84375 C 79.673502,59.84375 68.016701,84.099251 68.500001,102.90625 L 66.031251,102.90625 C 65.922539,97.17422 66.317262,77.627312 76.281251,62.15625 C 80.47319,59.877871 85.06482,57.845391 90.71875,58.25 C 88.77087,56.133621 85.57729,55.32801 81.15625,55.84375 C 81.24224,55.750935 81.31929,55.6547 81.40625,55.5625 C 83.12774,53.737293 84.74693,52.095113 86.28125,50.53125 C 92.59195,48.753795 100.4289,53.951216 104.15625,46.34375 C 97.09723,49.417265 94.58897,46.167872 90.21875,46.59375 C 93.53641,43.336284 96.19613,40.870656 98.46875,38.875 C 99.46164,38.634646 100.57778,38.582778 101.875,38.875 C 101.74622,36.803115 103.30834,35.177371 104.75,35.28125 C 108.17758,35.528223 106.15625,40.40625 106.15625,40.40625 C 107.1986,41.21696 112.06212,40.658633 111.84375,36.6875 C 111.62563,32.721037 108.34375,32.875 108.34375,32.875 C 114.01312,32.209342 114.56167,28.117326 114.3125,24.3125 C 113.16574,23.98883 111.91924,23.614007 110.78125,23.59375 C 108.27767,23.549185 105.97773,24.595464 104.71875,28.3125 C 104.71875,28.3125 105.55291,25.164011 101.71875,24.125 C 97.88007,23.084764 96.33027,27.717982 96.90625,28.90625 C 96.90625,28.90625 102.06568,27.908583 101.59375,31.3125 C 101.39525,32.744202 99.46843,33.963492 97.46875,33.40625 C 97.48148,34.478381 97.30042,35.363709 97,36.15625 C 94.63702,38.216758 91.82299,40.768743 88.3125,44.21875 C 88.61436,40.427767 86.34722,37.548674 89.8125,31.34375 C 81.9021,34.293365 86.24231,42.557453 83.90625,48.65625 C 82.66781,49.923163 81.3887,51.256419 80.03125,52.6875 C 79.793641,49.360685 78.743721,46.956649 76.843751,45.5 C 77.676881,50.619496 76.392061,55.024876 74.718751,59.09375 C 63.25215,75.56896 62.87191,96.6279 63.03125,102.90625 L 61.53125,102.90625 C 61.920969,46.329788 79.562501,43.041978 79.562501,28.21875 C 79.562501,13.114395 62.686979,10.444881 59.4375,1 z "
       id="path3130" />
    <path
       id="path3145"
       d="M 59.4375,1 C 56.188,10.444881 39.28125,13.114395 39.28125,28.21875 C 39.28125,43.041993 56.95407,46.32962 57.34375,102.90625 L 55.84375,102.90625 C 56.00309,96.6279 55.62285,75.56896 44.15625,59.09375 C 42.48294,55.024876 41.19813,50.619496 42.03125,45.5 C 40.131279,46.956649 39.08137,49.360685 38.84375,52.6875 C 37.4863,51.256419 36.2072,49.923163 34.96875,48.65625 C 32.632689,42.557453 36.97291,34.293365 29.0625,31.34375 C 32.52778,37.548674 30.26065,40.427767 30.5625,44.21875 C 27.052009,40.768743 24.237989,38.216758 21.875,36.15625 C 21.574579,35.363709 21.39353,34.478381 21.40625,33.40625 C 19.406569,33.963492 17.47976,32.744202 17.28125,31.3125 C 16.80932,27.908583 21.968759,28.90625 21.96875,28.90625 C 22.544729,27.717982 20.99494,23.084764 17.15625,24.125 C 13.322089,25.164011 14.156259,28.3125 14.15625,28.3125 C 12.89727,24.595464 10.59734,23.549185 8.09375,23.59375 C 6.955759,23.614007 5.709269,23.98883 4.5625,24.3125 C 4.31333,28.117326 4.86189,32.209342 10.53125,32.875 C 10.53125,32.875 7.24938,32.721037 7.03125,36.6875 C 6.81288,40.658633 11.676409,41.21696 12.71875,40.40625 C 12.71875,40.40625 10.697429,35.528223 14.125,35.28125 C 15.56666,35.177371 17.128789,36.803115 17,38.875 C 18.297219,38.582778 19.41337,38.634646 20.40625,38.875 C 22.678869,40.870656 25.3386,43.336284 28.65625,46.59375 C 24.286029,46.167872 21.77778,49.417265 14.71875,46.34375 C 18.446099,53.951216 26.28306,48.753795 32.59375,50.53125 C 34.12807,52.095113 35.74727,53.737293 37.46875,55.5625 C 37.555709,55.6547 37.63277,55.750935 37.71875,55.84375 C 33.297709,55.32801 30.10414,56.133621 28.15625,58.25 C 33.810179,57.845391 38.40182,59.877871 42.59375,62.15625 C 52.557739,77.627312 52.95246,97.17422 52.84375,102.90625 L 50.34375,102.90625 C 50.82705,84.099251 39.201499,59.84375 18.6875,59.84375 C 8.502339,59.843748 1.000009,67.025953 1,77.1875 C 0.999989,99.57993 30.312509,88.39294 30.3125,102.09375 C 30.312509,109.52879 21.679229,108.33782 21.5,108.3125 C 21.728009,105.26468 23.843759,106.03436 23.84375,103.71875 C 23.843759,101.41969 21.70039,101.34478 20.0625,99.625 C 18.424619,101.34478 16.31252,101.41969 16.3125,103.71875 C 16.3125,105.92279 18.242689,105.33955 18.625,107.90625 C 15.536829,107.69179 16.29307,105.5625 13.96875,105.5625 C 11.66969,105.56249 11.59478,107.70587 9.875,109.34375 C 11.59478,110.98163 11.66969,113.09374 13.96875,113.09375 C 16.29307,113.09375 15.536829,110.96447 18.625,110.75 C 18.238419,113.30274 16.312509,112.73693 16.3125,114.9375 C 16.312509,117.23656 18.42463,117.31147 20.0625,119.03125 C 21.700379,117.31147 23.84377,117.23656 23.84375,114.9375 C 23.84375,112.65208 21.773239,113.34868 21.5,110.4375 C 21.680699,110.45657 33.250009,111.63319 33.25,101.09375 C 33.249989,89.98555 23.437509,89.89089 23.4375,81.78125 C 23.4375,77.866515 26.099199,76.21875 30.15625,76.21875 C 40.243199,76.218753 47.415489,91.02992 47.53125,102.90625 L 46.65625,102.90625 C 43.34429,102.90625 40.6875,105.56304 40.6875,108.875 C 40.6875,112.18696 43.34429,114.875 46.65625,114.875 L 53.125,114.875 C 50.79338,120.96624 44.1499,123.21875 38.28125,123.21875 C 28.180039,123.21875 22.392669,126.94976 21.5,133.625 C 24.62081,128.66866 28.243489,130.4568 31.5,129.34375 C 34.76504,128.22779 36.634459,125.1875 41.25,125.1875 C 37.95216,126.91134 36.303939,128.83942 36.5,131 C 38.301669,129.32112 41.036319,129.77095 42.875,128.6875 C 44.743989,127.58619 45.755659,124.25563 48.625,122.96875 C 47.40071,124.49015 45.976789,126.60304 45.59375,128.21875 C 47.584419,126.35404 49.570049,126.51333 51.0625,125.34375 C 52.6002,124.1387 52.73334,121.802 55.25,121.09375 C 54.697859,124.54262 52.66082,129.88605 45.40625,131.96875 C 37.95615,134.1076 33.582789,138.69417 33.375,145.65625 C 36.69726,141.13808 38.09261,141.83299 40.59375,140 C 43.134499,138.13799 42.887119,136.33316 45.59375,134.6875 C 44.738299,136.4691 43.968379,138.28857 44.1875,140.5 C 45.52628,138.55232 48.150149,138.26623 50.8125,135.8125 C 52.576009,134.18716 52.523119,131.28125 54.25,131.28125 C 55.424539,131.28125 56.3125,132.2232 56.3125,133.78125 C 56.3125,136.27102 53.362749,138.74188 51.96875,142.21875 C 50.58154,145.67871 51.71875,150.90625 51.71875,150.90625 C 53.954889,150.44553 55.886849,148.63919 57.6875,146.21875 C 57.68751,148.88683 55.75,150.60214 55.75,152.28125 C 55.75,155.76862 58.259729,156.87507 59.40625,159.25 C 60.552769,156.87507 63.09375,155.76862 63.09375,152.28125 C 63.09375,150.60214 61.12501,148.88683 61.125,146.21875 C 62.92565,148.63919 64.888849,150.44553 67.125001,150.90625 C 67.125001,150.90625 68.262211,145.67871 66.875001,142.21875 C 65.480999,138.74188 62.531239,136.27102 62.53125,133.78125 C 62.53125,132.2232 63.4192,131.28125 64.59375,131.28125 C 66.320632,131.28125 66.267731,134.18716 68.031251,135.8125 C 70.693602,138.26623 73.317471,138.55232 74.656251,140.5 C 74.875372,138.28857 74.105441,136.4691 73.250001,134.6875 C 75.956632,136.33316 75.709272,138.13799 78.250001,140 C 80.75114,141.83299 82.14648,141.13808 85.46875,145.65625 C 85.26095,138.69417 80.8876,134.1076 73.437501,131.96875 C 66.182931,129.88605 64.145899,124.54262 63.59375,121.09375 C 66.110411,121.802 66.243541,124.1387 67.781251,125.34375 C 69.273702,126.51333 71.259321,126.35404 73.250001,128.21875 C 72.866962,126.60304 71.443051,124.49015 70.218751,122.96875 C 73.088092,124.25563 74.099751,127.58619 75.968751,128.6875 C 77.807431,129.77095 80.54207,129.32112 82.34375,131 C 82.5398,128.83942 80.89159,126.91134 77.593751,125.1875 C 82.20929,125.1875 84.07872,128.22779 87.34375,129.34375 C 90.60025,130.4568 94.22293,128.66866 97.34375,133.625 C 96.45107,126.94976 90.66372,123.21875 80.5625,123.21875 C 74.691581,123.21875 68.047941,120.97158 65.71875,114.875 L 72.218751,114.875 C 75.530711,114.875 78.187501,112.18696 78.187501,108.875 C 78.187501,105.56304 75.530701,102.90625 72.218751,102.90625 L 71.343751,102.90625 C 71.459512,91.02992 78.631801,76.218753 88.71875,76.21875 C 92.77581,76.21875 95.4375,77.866515 95.4375,81.78125 C 95.4375,89.89089 85.62501,89.98555 85.625,101.09375 C 85.625,111.63319 97.1943,110.45657 97.375,110.4375 C 97.10177,113.34868 95.03125,112.65208 95.03125,114.9375 C 95.03124,117.23656 97.17462,117.31147 98.8125,119.03125 C 100.45038,117.31147 102.56249,117.23656 102.5625,114.9375 C 102.5625,112.73693 100.63658,113.30274 100.25,110.75 C 103.33818,110.96447 102.58193,113.09375 104.90625,113.09375 C 107.20532,113.09374 107.28022,110.98163 109,109.34375 C 107.28023,107.70587 107.20531,105.56249 104.90625,105.5625 C 102.58194,105.5625 103.33817,107.69179 100.25,107.90625 C 100.63232,105.33955 102.5625,105.92279 102.5625,103.71875 C 102.56249,101.41969 100.45038,101.34478 98.8125,99.625 C 97.17462,101.34478 95.03124,101.41969 95.03125,103.71875 C 95.03125,106.03436 97.14699,105.26468 97.375,108.3125 C 97.19578,108.33782 88.56249,109.52879 88.5625,102.09375 C 88.5625,88.39294 117.87501,99.57993 117.875,77.1875 C 117.875,67.025953 110.37266,59.843748 100.1875,59.84375 C 79.673502,59.84375 68.016701,84.099251 68.500001,102.90625 L 66.031251,102.90625 C 65.922539,97.17422 66.317262,77.627312 76.281251,62.15625 C 80.47319,59.877871 85.06482,57.845391 90.71875,58.25 C 88.77087,56.133621 85.57729,55.32801 81.15625,55.84375 C 81.24224,55.750935 81.31929,55.6547 81.40625,55.5625 C 83.12774,53.737293 84.74693,52.095113 86.28125,50.53125 C 92.59195,48.753795 100.4289,53.951216 104.15625,46.34375 C 97.09723,49.417265 94.58897,46.167872 90.21875,46.59375 C 93.53641,43.336284 96.19613,40.870656 98.46875,38.875 C 99.46164,38.634646 100.57778,38.582778 101.875,38.875 C 101.74622,36.803115 103.30834,35.177371 104.75,35.28125 C 108.17758,35.528223 106.15625,40.40625 106.15625,40.40625 C 107.1986,41.21696 112.06212,40.658633 111.84375,36.6875 C 111.62563,32.721037 108.34375,32.875 108.34375,32.875 C 114.01312,32.209342 114.56167,28.117326 114.3125,24.3125 C 113.16574,23.98883 111.91924,23.614007 110.78125,23.59375 C 108.27767,23.549185 105.97773,24.595464 104.71875,28.3125 C 104.71875,28.3125 105.55291,25.164011 101.71875,24.125 C 97.88007,23.084764 96.33027,27.717982 96.90625,28.90625 C 96.90625,28.90625 102.06568,27.908583 101.59375,31.3125 C 101.39525,32.744202 99.46843,33.963492 97.46875,33.40625 C 97.48148,34.478381 97.30042,35.363709 97,36.15625 C 94.63702,38.216758 91.82299,40.768743 88.3125,44.21875 C 88.61436,40.427767 86.34722,37.548674 89.8125,31.34375 C 81.9021,34.293365 86.24231,42.557453 83.90625,48.65625 C 82.66781,49.923163 81.3887,51.256419 80.03125,52.6875 C 79.793641,49.360685 78.743721,46.956649 76.843751,45.5 C 77.676881,50.619496 76.392061,55.024876 74.718751,59.09375 C 63.25215,75.56896 62.87191,96.6279 63.03125,102.90625 L 61.53125,102.90625 C 61.920969,46.329788 79.562501,43.041978 79.562501,28.21875 C 79.562501,13.114395 62.686979,10.444881 59.4375,1 z "
       style="fill:#e40000;fill-opacity:1;fill-rule:evenodd;stroke:none;stroke-width:3;stroke-linecap:butt;stroke-linejoin:miter;stroke-miterlimit:4;stroke-dasharray:none;stroke-opacity:1" />
  </g>
</svg>
